<svg xmlns="http://www.w3.org/2000/svg" xmlns:xlink="http://www.w3.org/1999/xlink" width="500" zoomAndPan="magnify" viewBox="0 0 375 374.999991" height="500" preserveAspectRatio="xMidYMid meet" version="1.0"><path fill="#00f0a1" d="M 167.9375 88.582031 L 169.644531 99.464844 C 169.984375 101.632812 171.21875 104.972656 170.714844 107.15625 L 165.238281 130.773438 L 160.265625 152.230469 C 159.871094 153.941406 162.878906 158.46875 163.554688 160.027344 L 168.332031 171.003906 L 197.394531 146.136719 C 201.972656 142.214844 202.171875 142.335938 202.171875 136.171875 L 202.171875 126.816406 C 202.171875 125.824219 205.511719 123.398438 206.171875 122.75 C 222.917969 106.238281 239.359375 89.609375 254.996094 72.039062 C 252.5 70.359375 246.921875 64.625 243.984375 65.78125 L 226.617188 72.628906 L 190.175781 86.996094 C 190.175781 81.902344 192.707031 79.199219 195.453125 74.878906 C 197.828125 71.148438 198.589844 67.605469 199.710938 63.285156 C 198.027344 63.195312 193.078125 62.003906 191.917969 63.230469 C 189.335938 65.964844 186.746094 68.699219 184.160156 71.433594 L 167.9375 88.582031 " fill-opacity="1" fill-rule="evenodd"/><path fill="#ffdfd4" d="M 119.242188 52.148438 L 127.652344 61.253906 C 130.265625 64.085938 133.066406 65.003906 136.523438 66.691406 C 143.078125 69.898438 149.273438 73.46875 155.320312 77.558594 C 156.457031 78.328125 161.785156 75.125 162.957031 74.625 L 179.113281 67.699219 C 181.367188 66.734375 184.449219 64.628906 186.949219 64.539062 L 199.710938 64.082031 C 194.445312 64.660156 190.226562 67.652344 186.503906 71.246094 C 181.808594 75.78125 177.292969 77.535156 171.242188 80.1875 C 166.144531 82.421875 160.933594 85.421875 155.539062 86.855469 C 153.226562 87.464844 148.324219 89.890625 146.011719 89.378906 C 144.90625 89.136719 143.125 86.855469 142.300781 86.132812 C 131.140625 76.363281 119.980469 66.589844 108.820312 56.820312 C 107.292969 55.480469 106.078125 53.804688 104.765625 52.257812 C 103.589844 50.875 102.574219 45.808594 104.710938 45.292969 C 106.253906 44.921875 111.613281 42.683594 112.636719 43.960938 C 114.839844 46.6875 117.042969 49.417969 119.242188 52.148438 " fill-opacity="1" fill-rule="evenodd"/><path fill="#ffdfd4" d="M 249.59375 71.558594 C 244.351562 72.0625 240.960938 76.957031 239.582031 81.664062 C 238.0625 86.878906 242.371094 88.355469 246.136719 91.617188 L 276.046875 117.542969 L 250.53125 134.652344 C 247.246094 136.855469 244.449219 139.722656 241.503906 142.351562 C 239.789062 143.882812 238.28125 144.230469 239.058594 146.417969 C 239.976562 148.992188 240.894531 151.566406 241.808594 154.136719 L 254.433594 143.785156 C 257.449219 141.3125 262.316406 139.882812 265.785156 138.175781 L 286.679688 127.902344 L 293.199219 124.695312 C 295.105469 123.757812 294.328125 120.863281 294.421875 118.921875 C 294.574219 115.996094 287.46875 111.511719 285.476562 109.683594 L 268.660156 94.253906 C 261.441406 87.625 255.757812 79.164062 249.59375 71.558594 " fill-opacity="1" fill-rule="evenodd"/><path fill="#968052" d="M 176.832031 175.140625 L 189.65625 216.800781 C 191.277344 222.066406 195.90625 227.359375 198.757812 232.023438 C 201.832031 237.058594 205.308594 242.007812 208 247.261719 C 213.964844 258.882812 219.105469 271.578125 226.257812 282.503906 C 228.535156 285.984375 248.789062 319.164062 250.050781 318.597656 L 260.191406 314.042969 C 261.3125 313.539062 259.199219 310.234375 258.800781 309.304688 L 247.863281 283.566406 C 245.871094 278.875 244.03125 274.449219 242.621094 269.566406 C 240.996094 263.929688 240.238281 256.007812 236.894531 251.121094 L 222.359375 229.878906 C 219.851562 226.207031 217.074219 223.613281 216.941406 219.199219 L 215.378906 166.832031 C 215.28125 163.488281 216.109375 159.414062 213.941406 156.75 L 207.023438 148.25 C 206.382812 147.460938 202.3125 151.34375 201.164062 152.195312 C 191.730469 159.1875 182.9375 164.78125 176.832031 175.140625 " fill-opacity="1" fill-rule="evenodd"/><path fill="#968052" d="M 165.074219 146.339844 C 165.414062 159.316406 168.578125 170.515625 173.019531 182.617188 L 156.101562 180.679688 C 151.648438 180.171875 144.253906 180.785156 140.183594 178.789062 L 107.644531 162.808594 C 106.839844 169.96875 106.035156 177.128906 105.234375 184.289062 C 104.601562 189.921875 105.957031 195.070312 106.921875 200.671875 L 109.085938 213.230469 C 109.519531 215.738281 109.503906 215.457031 107.335938 216.847656 L 88.902344 228.683594 C 89.972656 227.777344 94.632812 224.925781 94.386719 223.582031 C 93.835938 220.570312 93.285156 217.5625 92.738281 214.550781 L 87.816406 187.625 C 85.367188 174.242188 83.3125 160.78125 81.097656 147.359375 C 80.890625 146.109375 79.902344 143.71875 80.820312 142.691406 C 81.757812 141.640625 86.84375 134.558594 87.972656 134.726562 L 101.855469 136.820312 L 156.429688 145.035156 L 165.074219 146.339844 " fill-opacity="1" fill-rule="evenodd"/><path fill="#ffdfd4" d="M 235.058594 65.511719 C 232.375 63.167969 224.359375 58.542969 224.441406 54.90625 C 224.503906 52.015625 223.828125 47.992188 224.652344 45.226562 C 225.324219 42.976562 227.867188 40.410156 229.15625 38.480469 C 231.296875 35.265625 233.441406 32.054688 235.585938 28.839844 C 236.796875 27.023438 235.179688 26.195312 233.902344 24.5 C 231.292969 21.039062 227.730469 12.429688 223.085938 13.878906 L 202.28125 20.378906 C 199.664062 21.195312 200.582031 23.148438 200.484375 25.832031 C 200.390625 28.527344 198.960938 30.679688 197.816406 33.117188 C 197.046875 34.757812 194.421875 38.316406 194.789062 40.171875 C 195.503906 43.742188 196.21875 47.3125 196.929688 50.878906 C 197.722656 54.84375 197.265625 55.082031 201.15625 56.3125 C 203.730469 57.125 206.824219 56.234375 209.480469 55.96875 C 209.566406 60.316406 210.667969 63.203125 207.324219 66.0625 C 204.65625 68.34375 201.519531 64.777344 198.757812 63.128906 C 197.585938 69.621094 195.339844 74.375 192.46875 80.367188 C 192.554688 80.1875 189.6875 86.816406 192.199219 85.785156 L 197.679688 83.539062 L 236.570312 67.582031 C 236.113281 66.957031 235.660156 65.992188 235.058594 65.511719 " fill-opacity="1" fill-rule="evenodd"/><path fill="#000000" d="M 267.546875 374.742188 C 272.328125 374.5625 278.945312 361.589844 280.941406 357.796875 C 284.433594 351.167969 287.589844 344.449219 290.421875 337.511719 C 292.183594 333.195312 297.851562 322.875 291.773438 319.8125 C 290.808594 319.324219 283.945312 338.152344 282.957031 340.695312 C 283.382812 335.289062 285.734375 330.667969 286.871094 325.4375 C 287.269531 323.589844 288.460938 318.625 287.007812 316.988281 C 285.289062 315.054688 284.527344 316.714844 284.421875 318.449219 C 283.769531 329.421875 280.277344 339.824219 276.964844 350.222656 C 275.300781 355.445312 274.003906 360.1875 271.320312 364.960938 C 270.601562 366.238281 268.183594 369.90625 266.515625 369.574219 C 264.617188 369.195312 264.988281 363.578125 263.414062 362.652344 C 260.03125 360.664062 259.601562 365.089844 260.476562 367.347656 C 261.722656 370.550781 264.101562 373.871094 267.546875 374.742188 " fill-opacity="1" fill-rule="evenodd"/><path fill="#000000" d="M 262.9375 351.992188 C 264.542969 349.875 263.089844 342.324219 262.339844 339.703125 C 261.117188 335.445312 263.65625 331.605469 260.210938 328.535156 C 258.570312 327.070312 250.054688 321.523438 250.609375 319.375 C 251.640625 315.402344 245.566406 308.320312 243.398438 304.894531 C 237.734375 295.945312 232.238281 287.039062 227.195312 277.726562 C 224.488281 272.734375 222.050781 267.539062 219.511719 262.457031 C 218.144531 259.726562 213.332031 247.492188 210.589844 247.855469 C 213.5 258.945312 219.21875 268.363281 224.792969 278.273438 C 230.007812 287.550781 235.3125 296.738281 240.726562 305.902344 C 242.5 308.90625 247.613281 314.003906 248.007812 317.382812 C 248.128906 318.4375 246.492188 319.253906 247.019531 320.363281 C 247.582031 321.539062 248.230469 322.523438 249.273438 323.34375 C 251.410156 325.03125 253.8125 326.386719 255.886719 328.15625 C 257.695312 329.703125 258.304688 330.347656 258.171875 332.5 C 258.105469 333.570312 256.730469 334.292969 257.109375 335.410156 C 258.609375 339.796875 260.269531 349.285156 262.9375 351.992188 " fill-opacity="1" fill-rule="evenodd"/><path fill="#ffffff" d="M 282.398438 341.96875 C 282.644531 341.269531 282.648438 341.253906 282.398438 341.96875 " fill-opacity="1" fill-rule="evenodd"/><path fill="#000000" d="M 270.566406 331.308594 C 271.527344 329.40625 269.238281 326.75 269.945312 324.324219 C 270.59375 322.097656 271.988281 320.183594 272.714844 318.003906 C 273.503906 315.636719 276.160156 308.328125 271.082031 310.503906 C 269.691406 311.097656 263.0625 316.398438 262.070312 315.710938 C 260.347656 314.515625 268.15625 304.804688 268.988281 303.359375 C 269.546875 302.390625 270.847656 298.058594 269.535156 297.175781 C 268.191406 296.273438 265.84375 301.550781 265.34375 302.390625 C 263.023438 306.261719 259.640625 310.542969 259.089844 315.183594 C 257.46875 328.804688 264.351562 318.089844 269.613281 315.316406 C 270.582031 319.933594 262.148438 328.222656 270.566406 331.308594 " fill-opacity="1" fill-rule="evenodd"/><path fill="#000000" d="M 258.488281 309.191406 C 259.496094 305.121094 255.71875 297.292969 254.03125 293.257812 C 251.367188 286.902344 248.53125 280.636719 245.972656 274.234375 C 241.351562 262.667969 238.691406 250.25 232.277344 239.421875 C 230.875 237.050781 226.578125 228.96875 223.300781 228.683594 C 220.71875 228.460938 221.105469 232.703125 220.648438 234.976562 C 220.511719 235.65625 225.644531 239.589844 226.402344 240.300781 C 230.585938 244.214844 234.695312 248.992188 237.035156 254.320312 C 237.90625 256.308594 243.230469 269.054688 239.507812 269.175781 C 238.027344 269.222656 236.4375 262.871094 234.820312 262.175781 C 234.085938 261.863281 231.613281 261.640625 232.476562 263.160156 C 235.0625 267.691406 238.21875 271.894531 240.738281 276.460938 C 243.703125 281.839844 246.652344 287.242188 249.445312 292.710938 C 251.136719 296.027344 255.148438 308.234375 258.488281 309.191406 " fill-opacity="1" fill-rule="evenodd"/><path fill="#000000" d="M 103.515625 287.15625 C 108.191406 287.53125 111.835938 281.578125 114.078125 278.246094 C 117.085938 273.777344 118.363281 268.976562 120.195312 264.003906 C 122.347656 258.167969 124.445312 252.316406 126.472656 246.421875 L 130.582031 234.464844 C 131.59375 231.523438 131.503906 232.375 129.332031 230.832031 C 125.585938 228.164062 123.75 227.863281 122.332031 232.40625 C 120.453125 238.425781 118.734375 244.492188 116.933594 250.539062 C 113.40625 262.363281 112.277344 275.835938 103.867188 285.253906 C 103.527344 285.628906 103.4375 286.644531 103.515625 287.15625 " fill-opacity="1" fill-rule="evenodd"/><path fill="#000000" d="M 93.347656 284.527344 C 99.457031 279.707031 101.230469 268.679688 100.265625 261.445312 C 99.71875 257.355469 98.296875 253.371094 98.007812 249.246094 C 97.867188 247.21875 98.4375 244.859375 98.191406 242.921875 C 97.992188 241.34375 99.019531 241.128906 96.523438 241.25 C 95.558594 241.300781 94 242.332031 93.226562 242.882812 C 91.378906 244.199219 92.46875 244.9375 93.488281 246.722656 C 95.78125 250.71875 96.601562 255.390625 96.746094 259.960938 C 96.964844 266.988281 96.464844 278.757812 93.347656 284.527344 " fill-opacity="1" fill-rule="evenodd"/><path fill="#000000" d="M 103.515625 245.863281 L 116.316406 228.140625 C 118.4375 225.207031 119.007812 225.414062 117.164062 222.242188 C 116.210938 220.601562 115.304688 217.152344 113.523438 219.53125 C 114.074219 216.828125 118.148438 206.808594 113.601562 207.597656 C 113.035156 207.695312 112.078125 209.402344 111.695312 209.347656 C 110.410156 209.160156 110.304688 206.695312 110.019531 205.703125 C 109.09375 202.503906 108.664062 199.210938 108.472656 195.890625 C 108.089844 189.304688 108.839844 182.742188 109.3125 176.175781 C 109.566406 172.648438 107.703125 162.140625 113.363281 166.390625 C 122.550781 173.285156 134.183594 177.929688 145.027344 181.433594 C 150.675781 183.261719 156.042969 183.984375 161.898438 184.71875 C 164.410156 185.03125 167 185.097656 169.527344 185.015625 C 171.195312 184.964844 175.109375 183.953125 176.515625 185.164062 C 178.132812 186.558594 179.3125 193.539062 180.117188 195.621094 C 181.476562 199.140625 182.792969 202.6875 184.3125 206.144531 C 185.59375 209.054688 191.390625 224.050781 194.625 223.351562 C 189.246094 212.183594 184.128906 200.4375 181.375 188.296875 C 180.382812 183.925781 176.765625 174.355469 179.652344 170.804688 C 183.515625 166.050781 188.582031 162.09375 193.75 158.832031 C 197.84375 156.25 202.269531 154.261719 206.738281 152.46875 C 207.425781 152.191406 209.324219 152.453125 208.320312 153.363281 L 198.667969 162.132812 C 196.039062 164.523438 193.90625 165.203125 194.429688 168.730469 C 194.894531 171.878906 197.855469 169.0625 199.710938 167.980469 C 203.851562 165.558594 209.503906 162.859375 213.054688 159.746094 C 216.679688 156.566406 218.199219 155.351562 216.746094 150.023438 C 215.242188 144.503906 211.542969 141.246094 208.527344 136.636719 C 207.851562 135.601562 204.421875 131.726562 204.476562 130.667969 C 204.558594 128.988281 209.230469 125.988281 210.351562 124.867188 C 211.570312 123.644531 215.644531 120.488281 215.117188 118.636719 C 214.171875 115.316406 217.574219 114.761719 220.21875 113.183594 C 225.890625 109.808594 230.929688 106.578125 235.296875 101.550781 C 236.34375 100.34375 238.933594 96.0625 240.578125 96.0625 C 242.332031 96.0625 241.628906 91.167969 244.191406 92.882812 C 246.539062 94.445312 248.683594 97.597656 250.914062 99.496094 C 253.414062 101.613281 256.402344 103.332031 259.132812 105.136719 C 264.71875 108.835938 269.007812 112.707031 272.144531 118.683594 C 273.636719 121.527344 264.765625 124.003906 263.125 124.730469 C 257.921875 127.03125 268.140625 125.789062 269.851562 125.339844 C 272.769531 124.574219 277.621094 123.371094 278.429688 120.089844 C 279.417969 116.097656 273.921875 113.132812 271.386719 110.929688 C 264.136719 104.632812 256.273438 99.066406 249.09375 92.671875 C 248.0625 91.753906 244.179688 89.027344 244.515625 87.488281 C 245.265625 84.035156 244.890625 83.714844 241.96875 81.824219 C 240.15625 80.648438 238.253906 79.535156 236.09375 79.199219 C 238.078125 86.78125 218.804688 93.378906 213.683594 95.3125 C 208.496094 97.273438 203.285156 99.128906 198.039062 100.9375 C 192.042969 103.003906 193.539062 103.320312 197.644531 108.078125 L 186.25 115.59375 C 182.894531 117.808594 184.90625 120.46875 185.730469 124.226562 L 210.59375 110.460938 C 211.28125 112.863281 199.683594 119.550781 197.445312 121.046875 C 191.125 125.265625 183.769531 128.214844 177.785156 132.898438 C 175.894531 134.378906 172.355469 136.683594 173.378906 139.421875 C 173.925781 140.886719 174.660156 143.917969 176.515625 144.351562 C 178.675781 144.863281 182.894531 140.550781 184.585938 139.371094 L 194.867188 132.179688 C 194.394531 133.253906 193.511719 133.957031 192.640625 134.726562 C 192.800781 134.707031 193.097656 134.519531 193.355469 134.488281 C 191.011719 137.902344 186.414062 140.777344 183.246094 143.371094 C 178.785156 147.027344 173.996094 150.601562 170.398438 155.171875 C 167.144531 159.3125 165.605469 163.933594 164.878906 169.054688 C 164.085938 174.625 174.253906 176.09375 164.441406 177.320312 C 153.941406 178.632812 142.335938 175.097656 132.636719 171.507812 C 127.609375 169.648438 122.539062 167.164062 117.882812 164.5 C 114.019531 162.289062 106.753906 160.070312 107.007812 154.539062 L 116.480469 158.507812 C 117.097656 158.765625 122.976562 161.785156 121.625 159.628906 C 120.605469 158 115.386719 156.242188 113.621094 155.191406 C 110.679688 153.4375 107.742188 151.671875 104.707031 150.082031 C 101.960938 148.648438 99.136719 147.257812 96.1875 146.292969 C 92.589844 145.117188 92.972656 146.488281 95.554688 148.101562 C 100.636719 151.28125 103.628906 156.34375 105.378906 161.9375 C 107.195312 167.757812 105.210938 175.003906 103.402344 180.566406 C 102.539062 183.214844 101.636719 185.886719 100.867188 188.5625 C 99.480469 193.367188 100.359375 190.609375 102.324219 191.609375 C 105.390625 193.171875 104.996094 200.125 105.660156 203.625 C 106.191406 206.421875 107.488281 209.722656 106.929688 212.613281 C 106.359375 215.589844 104.0625 217.046875 102.40625 219.335938 C 101.941406 219.976562 99.53125 223.644531 101.171875 223.792969 C 103.328125 223.980469 104.820312 222.304688 106.691406 221.601562 C 107.300781 221.375 109.816406 219.886719 108.96875 221.578125 L 104.167969 231.140625 C 103.746094 231.984375 101.074219 235.671875 102.085938 236.558594 C 102.882812 237.257812 108.636719 232.0625 109.472656 232.738281 C 110.699219 233.722656 104.359375 244.175781 103.515625 245.863281 " fill-opacity="1" fill-rule="evenodd"/><path fill="#000000" d="M 207.257812 246.261719 C 212.128906 244.824219 212.378906 245.191406 213.664062 240.300781 C 214.71875 236.296875 215.605469 232.285156 216.304688 228.207031 C 217.597656 220.605469 218.273438 212.835938 218.578125 205.132812 C 218.78125 199.929688 220.328125 159.882812 213.214844 161.457031 C 215.339844 182.304688 212.835938 203.773438 210.242188 224.507812 C 209.707031 228.769531 209.207031 233.011719 208.449219 237.234375 C 207.609375 241.894531 206.894531 242.933594 203.875 238.578125 C 203.054688 237.394531 200.304688 231.964844 198.914062 232.660156 C 197.425781 233.402344 199.488281 237.300781 200.195312 238.480469 C 201.917969 241.355469 204.292969 244.660156 207.257812 246.261719 " fill-opacity="1" fill-rule="evenodd"/><path fill="#000000" d="M 90.328125 237.035156 C 91.5 236.953125 92.632812 236.40625 93.507812 235.601562 C 90 232.355469 90.238281 232.792969 92.964844 228.894531 C 95.734375 224.9375 96.429688 224.261719 95.652344 219.453125 C 94.617188 213.070312 92.933594 206.796875 91.523438 200.492188 C 88.558594 187.25 87.640625 173.988281 86.085938 160.554688 C 85.757812 157.722656 85.34375 154.90625 84.636719 152.148438 C 83.96875 149.554688 81.421875 145.15625 82.519531 142.835938 C 83.53125 140.6875 85.796875 139.226562 87.378906 137.542969 C 88.195312 136.671875 89.46875 135.746094 89.851562 134.566406 C 90.769531 131.738281 89.949219 132.472656 87.945312 133.453125 C 85.730469 134.535156 83.625 137.160156 81.667969 138.703125 C 80.722656 139.449219 79.1875 140.265625 78.414062 141.167969 C 76.667969 143.207031 77.085938 142.269531 77.695312 144.988281 C 79.058594 151.046875 80.332031 157.070312 81.421875 163.195312 C 83.796875 176.566406 85.882812 189.839844 89.085938 203.046875 C 89.757812 205.804688 95.078125 221.304688 93.332031 222.941406 C 89.074219 226.945312 83.65625 233.097656 90.328125 237.035156 " fill-opacity="1" fill-rule="evenodd"/><path fill="#000000" d="M 236.011719 169.652344 C 238.980469 169.410156 246.207031 170.144531 248.085938 168.058594 C 248.785156 167.277344 247.449219 166.152344 248.722656 165.195312 C 249.492188 164.617188 250.96875 163.652344 251.34375 162.730469 C 254.027344 156.101562 234.96875 159.976562 232.414062 160.25 C 227.792969 160.75 226.796875 162.609375 232.210938 162.964844 C 233.824219 163.070312 234.257812 163.683594 232.59375 163.964844 C 231.320312 164.175781 231.777344 165.121094 230.609375 165.316406 C 229.285156 165.539062 226.714844 165.335938 226.800781 167.34375 C 226.910156 170.070312 234.160156 168.972656 236.011719 169.652344 " fill-opacity="1" fill-rule="evenodd"/><path fill="#00f0a1" d="M 186.046875 156.523438 C 188.390625 155.441406 204.261719 149.359375 201.933594 145.863281 C 199.636719 142.410156 188.128906 153.609375 185.492188 155.570312 C 185.753906 155.492188 186.015625 155.464844 186.285156 155.492188 C 186.164062 155.886719 186.007812 156.390625 186.046875 156.523438 " fill-opacity="1" fill-rule="evenodd"/><path fill="#000000" d="M 231.957031 156.84375 C 235.433594 156.367188 238.914062 155.890625 242.390625 155.414062 C 244.035156 155.1875 246.765625 150.703125 248.28125 149.375 C 252.765625 145.457031 258.207031 142.722656 263.644531 140.359375 C 269.414062 137.855469 275 134.765625 280.890625 132.574219 C 285.71875 130.78125 294.925781 129.242188 294.214844 122.726562 C 293.859375 119.449219 286.164062 125.011719 284.464844 126.292969 C 280.96875 128.921875 275.988281 130.066406 272.070312 132.019531 C 263.578125 136.253906 255.085938 141.078125 247.328125 146.460938 C 244.039062 148.742188 244.066406 146.121094 244.269531 143.953125 C 244.542969 141.042969 245.792969 138.734375 248.339844 136.820312 C 250.628906 135.097656 260.195312 131.605469 259.757812 128.523438 C 252.496094 130.667969 246.449219 135.355469 238.945312 137.113281 C 239.492188 135.015625 240.015625 132.519531 240.332031 130.046875 C 240.699219 127.164062 239.351562 125.785156 243.59375 125.339844 C 246.277344 125.054688 252.40625 126.765625 252.488281 123.390625 C 252.566406 120.367188 250.953125 122.398438 249.273438 120.644531 C 248.636719 119.984375 249.859375 118.511719 248.535156 117.4375 C 246.691406 115.949219 242.933594 111.433594 240.21875 111.816406 C 239.992188 111.847656 238.386719 113.769531 237.316406 114.015625 L 228.742188 115.984375 C 226.34375 116.53125 225.089844 118.34375 225.324219 121.003906 C 225.667969 124.921875 228.761719 123.75 231.957031 123.75 C 230.851562 125.460938 227.792969 125.191406 227.191406 127.648438 C 228.714844 127.457031 235.710938 125.765625 236.207031 127.050781 C 237.152344 129.519531 236.578125 132.28125 236.882812 134.847656 C 237.335938 138.6875 235.871094 137.648438 231.859375 138.101562 C 228.90625 138.4375 230.179688 139.027344 229.972656 141.25 C 229.828125 142.777344 229.316406 143.796875 228.9375 145.230469 C 228.328125 147.527344 228.761719 147.117188 229.175781 149.289062 C 229.875 152.882812 229.273438 154.253906 231.957031 156.84375 " fill-opacity="1" fill-rule="evenodd"/><path fill="#000000" d="M 164.996094 154.933594 C 170.921875 149.8125 165.9375 140.507812 167.027344 133.738281 C 168.324219 125.6875 169.871094 115.429688 174.210938 108.472656 C 174.78125 107.5625 175.433594 106.609375 176.195312 105.847656 C 177.457031 104.585938 175.203125 102.105469 174.527344 100.542969 C 172.859375 96.683594 171.226562 92.484375 171.371094 88.203125 C 171.5 84.433594 177.667969 81.511719 180.558594 79.285156 C 182.800781 77.5625 187.347656 73.796875 187.875 71.003906 C 175.40625 73.054688 166.632812 81.359375 154.855469 84.933594 C 153.800781 85.253906 150.921875 86.75 149.90625 86.4375 C 149.175781 86.210938 147.816406 83.921875 147.203125 83.253906 C 144.921875 80.777344 142.488281 78.460938 139.949219 76.257812 C 135.300781 72.226562 130.226562 69.019531 125.78125 64.691406 C 121.265625 60.292969 116.894531 55.804688 113.25 50.636719 C 111.761719 48.53125 111.667969 46.519531 112.808594 44.667969 C 112.675781 44.886719 114.210938 45.632812 114.4375 45.542969 C 115.503906 45.117188 113.253906 41.902344 112.886719 41.167969 C 112.003906 39.394531 103.003906 46.007812 101.765625 46.5 C 100.6875 46.925781 99.363281 45.527344 98.746094 46.976562 C 98.097656 48.503906 102.042969 51.601562 103.195312 52.464844 C 104.148438 53.183594 105.089844 53.894531 106.214844 54.054688 C 105.285156 39.164062 109.316406 54.234375 107.046875 55.210938 C 105.964844 55.675781 103.542969 55.195312 106.070312 56.703125 C 109.019531 58.464844 111.460938 60.519531 113.800781 63.046875 C 118.09375 67.683594 121.546875 73.007812 125.96875 77.535156 C 128.898438 80.53125 136.285156 84.460938 137.351562 88.820312 C 138.1875 92.226562 133.582031 91.5 138.265625 94.75 C 139.816406 95.824219 143.273438 98.214844 145.230469 97.503906 C 148.109375 96.453125 151.03125 95.527344 154.035156 94.910156 C 158.8125 93.921875 167.132812 91.136719 167.917969 97.949219 C 168.628906 104.089844 167.015625 109.867188 165.703125 115.792969 C 163.570312 125.410156 161.953125 134.707031 162.136719 144.589844 C 150.019531 142.703125 138.121094 139.484375 126.042969 137.300781 C 119.675781 136.152344 113.183594 134.757812 106.734375 134.21875 C 103.605469 133.957031 100.433594 133.578125 97.289062 133.527344 C 95.96875 133.503906 93.828125 133.015625 92.632812 133.613281 C 92.027344 133.914062 92.347656 134.933594 91.679688 135.3125 C 86.488281 138.25 94.101562 138.457031 96.164062 138.734375 L 121.824219 142.1875 L 150.171875 146.003906 C 152.246094 146.28125 161.625 146.183594 162.40625 148.375 C 163.105469 150.316406 163.71875 153.566406 164.996094 154.933594 " fill-opacity="1" fill-rule="evenodd"/><path fill="#cfb071" d="M 234.1875 153.820312 C 234.402344 151.566406 237.769531 138.0625 233.707031 138.742188 C 231.367188 139.136719 231.363281 145.46875 231.40625 147.292969 C 231.472656 150.433594 231.855469 152.988281 234.1875 153.820312 " fill-opacity="1" fill-rule="evenodd"/><path fill="#000000" d="M 189.304688 153.660156 L 191.527344 152.386719 C 190.890625 152.671875 189.222656 153.753906 189.304688 153.660156 " fill-opacity="1" fill-rule="evenodd"/><path fill="#000000" d="M 229.335938 136.476562 C 230.582031 136.351562 234.535156 136.65625 235.097656 135.523438 C 236.257812 133.1875 229.816406 133.929688 229.070312 133.929688 C 225.128906 133.929688 227.027344 135.484375 229.335938 136.476562 " fill-opacity="1" fill-rule="evenodd"/><path fill="#000000" d="M 295.1875 119.214844 C 296.6875 118.746094 292.691406 114.664062 291.695312 113.566406 C 289.632812 111.289062 287.4375 109.152344 285.171875 107.078125 C 280.746094 103.027344 276.058594 99.097656 272.390625 94.3125 C 270.40625 91.726562 251.566406 64.90625 249 69.53125 C 247.113281 72.929688 254.335938 78.351562 256.617188 81.191406 C 260.734375 86.3125 264.703125 91.53125 268.902344 96.578125 C 276.574219 105.792969 286.21875 111.539062 295.1875 119.214844 " fill-opacity="1" fill-rule="evenodd"/><path fill="#00f0a1" d="M 203.285156 110.777344 C 209.960938 108.144531 219.15625 104.472656 222.824219 97.890625 L 204.542969 105.957031 C 202.191406 106.996094 200.273438 108.800781 203.285156 110.777344 " fill-opacity="1" fill-rule="evenodd"/><path fill="#ffdfd4" d="M 145.535156 94.074219 C 148.820312 91.921875 143.554688 89.933594 141.644531 89.855469 C 141.710938 92.304688 143.53125 93.277344 145.535156 94.074219 " fill-opacity="1" fill-rule="evenodd"/><path fill="#000000" d="M 190.496094 90.097656 C 200.511719 84.523438 210.601562 79.015625 221.152344 74.515625 C 225.832031 72.519531 231.015625 70.375 235.972656 69.171875 C 238.976562 68.445312 247.136719 69.007812 248.402344 67.105469 C 250.4375 64.042969 240.015625 65.574219 239.347656 65.511719 C 234.300781 65.042969 229 59.644531 225.917969 55.746094 C 222.09375 50.90625 222.140625 55.210938 224.492188 58.351562 C 226.894531 61.558594 229.832031 64.363281 232.832031 66.867188 C 225.832031 68.882812 218.914062 71.203125 212.140625 73.898438 C 208.628906 75.292969 205.117188 76.6875 201.734375 78.382812 C 199.171875 79.664062 195.492188 82.59375 192.71875 82.699219 C 196.0625 76.863281 199.214844 71.667969 200.742188 65.035156 L 206.222656 68.617188 C 206.941406 64.496094 198.871094 61.816406 195.917969 61.183594 C 190.445312 60.007812 184.890625 62.667969 179.921875 64.660156 C 170.066406 68.605469 160.933594 73.683594 150.777344 76.96875 C 152.878906 84.054688 184.179688 67.875 189.40625 66.3125 C 190.394531 66.015625 194.464844 63.984375 195.738281 64.242188 C 198.511719 64.796875 196.457031 69.773438 195.378906 71.996094 C 193.699219 75.460938 191.332031 78.417969 189.464844 81.765625 C 187.488281 85.308594 186.335938 87.851562 190.496094 90.097656 " fill-opacity="1" fill-rule="evenodd"/><path fill="#000000" d="M 92.949219 70.207031 C 97.792969 69.519531 93.925781 62.367188 93.128906 59.878906 C 92.75 58.691406 91.804688 57.261719 92.550781 56.207031 C 93.371094 55.042969 96.925781 55.394531 97.398438 53.980469 C 97.945312 52.332031 96.742188 50.703125 95.308594 50.265625 C 90.257812 48.722656 91.515625 48.09375 89.292969 44.273438 C 88.058594 42.144531 83.902344 39.625 81.273438 40.691406 C 80.257812 41.105469 76.859375 45.273438 77.164062 46.15625 L 82.160156 60.660156 C 83.144531 63.515625 83.542969 69.4375 87.46875 69.414062 C 88.347656 67.683594 86.3125 61.277344 89.375 63.683594 C 91.242188 65.152344 91.019531 69.742188 92.949219 70.207031 " fill-opacity="1" fill-rule="evenodd"/><path fill="#000000" d="M 138.703125 69.648438 C 139.074219 68.625 128.265625 59.710938 126.574219 57.917969 C 125.226562 56.484375 119.992188 46.382812 118.011719 48.367188 C 114.996094 51.390625 123.046875 59.089844 125.230469 61.183594 C 128.746094 64.546875 134.359375 68.582031 138.703125 69.648438 " fill-opacity="1" fill-rule="evenodd"/><path fill="#000000" d="M 209.796875 65.355469 L 212.707031 53.003906 C 213.109375 51.28125 204.417969 54.484375 203.503906 54.761719 C 199.730469 55.910156 200.03125 53.59375 199.273438 50.558594 C 198.914062 49.113281 197.933594 48.785156 198.339844 47.335938 C 198.757812 45.835938 199.972656 43.625 199.234375 42.203125 C 198.152344 40.125 195.601562 41.855469 196.191406 38.898438 C 196.53125 37.210938 197.492188 35.386719 198.332031 33.890625 C 199.367188 32.035156 200.988281 23.796875 202.148438 23.136719 C 208.941406 19.285156 216.167969 16.003906 223.78125 14.199219 C 220.316406 17.449219 206.894531 24.269531 210.992188 30.269531 C 216.253906 26.882812 221.96875 23.167969 228.226562 22.074219 C 228.574219 25.589844 222.160156 27.933594 220.441406 30.585938 C 222.574219 29.792969 226.179688 27.574219 228.386719 28.679688 C 230.550781 29.761719 227.460938 32.0625 225.992188 33.902344 C 222.019531 38.875 218.441406 43.558594 216.578125 49.722656 C 216.167969 51.09375 215.8125 63.207031 218.296875 62.726562 C 219.203125 62.554688 219.824219 49.035156 220.917969 46.816406 C 222.105469 48.363281 222.699219 49.734375 224.570312 50.875 C 228.457031 42.296875 236.613281 37.160156 239.90625 27.964844 C 240.714844 25.703125 240.980469 23.664062 240.347656 21.335938 C 239.871094 19.589844 238.507812 19.917969 237.523438 18.894531 C 236.472656 17.804688 235.929688 18.664062 236.410156 16.746094 C 236.773438 15.296875 236.832031 14.765625 236.25 13.402344 C 232.980469 5.765625 215.433594 14.90625 210.339844 16.425781 C 204.949219 18.027344 198.992188 20.117188 193.277344 19.054688 C 191.890625 18.796875 183.691406 16.398438 187.480469 13.800781 C 185.386719 12.554688 184.820312 16.03125 185.570312 17.542969 C 187.425781 21.257812 189.789062 23.480469 194.074219 23.828125 C 196.144531 23.996094 199.414062 22.769531 199.949219 24.304688 C 199.988281 24.417969 198.171875 28.890625 197.898438 29.515625 C 196.898438 31.789062 195.71875 33.84375 194.5 36.003906 C 193.429688 37.902344 191.675781 39.238281 192.988281 41.214844 C 194.230469 43.078125 194.847656 45.453125 195.34375 47.613281 C 195.992188 50.464844 195.683594 56.113281 198.320312 57.996094 C 200.214844 59.347656 203 57.390625 204.953125 57.320312 C 209.195312 57.160156 208.789062 61.734375 209.796875 65.355469 " fill-opacity="1" fill-rule="evenodd"/><path fill="#000000" d="M 126.472656 53.261719 C 129.871094 53.300781 130.550781 51.59375 132.675781 49.105469 C 134.898438 46.5 134.292969 46.070312 133.546875 42.664062 C 132.757812 39.085938 131.972656 35.507812 131.1875 31.929688 C 130.644531 29.457031 128.199219 29.277344 126.589844 27.324219 C 124.496094 24.78125 122.539062 26.851562 119.65625 28.027344 C 117.410156 28.945312 119.320312 30.859375 119.996094 32.417969 C 120.621094 33.84375 122.992188 38.890625 122.261719 40.371094 C 121.070312 42.796875 116.214844 40.929688 117.8125 45.144531 C 121.210938 44.375 122.816406 42.953125 124.085938 46.339844 C 124.871094 48.425781 124.035156 52.304688 126.472656 53.261719 " fill-opacity="1" fill-rule="evenodd"/><path fill="#000000" d="M 209.5625 48.886719 C 210.199219 49.058594 211.039062 48.886719 211.703125 48.886719 C 210.882812 44.136719 210.089844 38.25 213.292969 34.167969 C 211.152344 36.535156 205.378906 46.570312 209.5625 48.886719 " fill-opacity="1" fill-rule="evenodd"/><path fill="#000000" d="M 242.605469 40.769531 C 245.523438 40.21875 247.578125 39.105469 249.871094 37.269531 C 251.199219 36.207031 252.351562 33.90625 253.804688 33.132812 C 256.550781 31.671875 257.21875 33.097656 258.625 29.828125 C 259.609375 27.535156 259.488281 24.84375 259.386719 22.410156 C 258.933594 11.652344 247.027344 7.4375 238 10.222656 C 241 14.902344 246.5 19.074219 246.5 25.148438 C 246.5 31.308594 243.199219 34.746094 239.746094 39.417969 C 240.640625 39.960938 241.597656 40.414062 242.605469 40.769531 " fill-opacity="1" fill-rule="evenodd"/><path fill="#000000" d="M 197.484375 16.90625 L 211.707031 12.6875 C 206.867188 12.136719 202.359375 14.238281 197.566406 13.960938 C 194.507812 13.785156 192.742188 12.320312 190.417969 11.253906 C 190.121094 15.3125 194.390625 16.457031 197.484375 16.90625 " fill-opacity="1" fill-rule="evenodd"/><path fill="#000000" d="M 203.601562 0.277344 L 236.25 7.359375 C 228.988281 7.46875 222.003906 6.609375 214.804688 5.765625 C 207.976562 4.96875 199.394531 3.78125 192.957031 7 C 191.292969 7.832031 186.027344 11.636719 187.714844 7.398438 C 190.152344 1.277344 198.023438 0.691406 203.601562 0.277344 " fill-opacity="1" fill-rule="evenodd"/></svg>